<!-- mongodb.svg -->
<svg xmlns="http://www.w3.org/2000/svg" viewBox="0 0 16 16">
 <title>MongoDB Logo</title>
 <path fill="#47A248" d="M12.12.3C11.45-.09 10.58-.1 9.94.27c-.5.3-1.2 1.12-1.28 1.2-.1.09-.74.79-1.14 1.8C7.1 4.2 7.1 5.1 7.3 5.95c.24.85.65 1.48 1.2 2.2.54.71 1.19 1.49 1.5 2.33.3 1-.1 2.16-1.08 3.1-1 .88-2.3 1.08-3.5 1.08H4.32c-.46 0-.86.34-1 .8a1.1 1.1 0 001 1.33h1.1c2.12 0 4.05-.76 5.4-2.1 1.56-1.46 2.2-3.55 1.88-5.68-.24-1.52-1-2.75-1.78-3.88C9.9 4.1 9.1 2.97 8.96 2.82c-.08-.1-.07-.3.1-.5.16-.16.5-.43 1.1-.7 1.1-.5 2.37-.08 3.07.6C13.9 2.8 14 3.9 14 5.13c0 1.3-.3 2.65-.94 3.9-.63 1.2-1.5 2.3-2.6 3.18C9.4 12.9 8.1 13.4 6.7 13.4H5.58a2.1 2.1 0 01-2-1.6 2.3 2.3 0 012-2.6h1.14c.7 0 1.4-.17 1.9-.6.5-.4.6-1 .4-1.5-.3-.8-.9-1.5-1.4-2.2-.5-.6-1-1.3-1.2-2-.3-.9-.2-1.9.2-2.8.5-1 1.3-1.8 1.4-1.8.2-.2.2-.5 0-.7-.1-.1-.3-.2-.5-.3-.4-.1-.8 0-1.1.2-.4.2-1.4 1.3-1.8 2.4-.5 1.3-.4 2.6.2 3.8.6 1.1 1.5 2.1 2.7 2.8 1.3.8 2.8 1.1 4.3 1 .2 0 .4 0 .5-.1.6-.2 1-.6 1.4-1 .5-.5.9-1.2 1-2 .1-1.1-.2-2.3-.9-3.4-.6-1.1-1.5-2.2-2.5-3.1C13.1 1.8 12.7.6 12.1.3z"/>
</svg>