<svg xmlns="http://www.w3.org/2000/svg" viewBox="0 0 32 32">
  <path fill="#83CD29" d="M16 30a14 14 0 1 1 14-14 14 14 0 0 1-14 14zm0-26a12 12 0 1 0 12 12A12 12 0 0 0 16 4z"/>
  <path fill="#83CD29" d="M22 24a2 2 0 0 1-1.24-.43l-3.46-2.48a.21.21 0 0 0-.24 0l-3.84 2.74a1.93 1.93 0 0 1-2.17-.17 1.71 1.71 0 0 1-.63-1.33V11.19a1.71 1.71 0 0 1 .63-1.33 1.93 1.93 0 0 1 2.17-.17l7.06 4.26a1.71 1.71 0 0 1 .63 1.33v3.84a.22.22 0 0 0 .35.17l1.8-1.08a.22.22 0 0 1 .34.17v4.59a1.71 1.71 0 0 1-.63 1.33A1.92 1.92 0 0 1 22 24zm-5.14-3.84a2 2 0 0 1 1.24.43l3.46 2.48a.21.21 0 0 0 .24 0 .22.22 0 0 0 .1-.17v-4.38l-1.43.86a2 2 0 0 1-2.27-.16 1.71 1.71 0 0 1-.63-1.33v-3.84a.22.22 0 0 0-.35-.17l-4.06 2.45a.22.22 0 0 0-.1.17v6.08a.22.22 0 0 0 .35.17z"/>
</svg>