<!-- tailwind.svg -->
<svg xmlns="http://www.w3.org/2000/svg" viewBox="0 0 200 123.3">
  <title>Tailwind CSS Logo</title>
  <path fill="#38b2ac" d="M100 0C44.8 0 0 44.8 0 100s44.8 100 100 100 100-44.8 100-100S155.2 0 100 0zm0 180c-44.1 0-80-35.9-80-80s35.9-80 80-80 80 35.9 80 80-35.9 80-80 80z"/>
  <path fill="#38b2ac" d="M125.8 74.2c-9.8 9.8-23.8 15.6-37.8 15.6s-28-5.8-37.8-15.6c-9.8-9.8-15.6-23.8-15.6-37.8 0-14 5.8-28 15.6-37.8C57.8-.8 71.8-6.6 85.8-6.6s28 5.8 37.8 15.6c9.8 9.8 15.6 23.8 15.6 37.8s-5.8 28-15.6 37.8zm-37.8-58c-5.5 0-10.8 2.2-14.6 5.9-3.8 3.8-5.9 9.1-5.9 14.6s2.2 10.8 5.9 14.6c3.8 3.8 9.1 5.9 14.6 5.9s10.8-2.2 14.6-5.9c3.8-3.8 5.9-9.1 5.9-14.6s-2.2-10.8-5.9-14.6c-3.8-3.8-9.1-5.9-14.6-5.9zm37.8 102.2c-9.8-9.8-23.8-15.6-37.8-15.6s-28 5.8-37.8 15.6c-9.8 9.8-15.6 23.8-15.6 37.8 0 14 5.8 28 15.6 37.8 9.8 9.8 23.8 15.6 37.8 15.6s28-5.8 37.8-15.6c9.8-9.8 15.6-23.8 15.6-37.8s-5.8-28-15.6-37.8zm-37.8 58c-5.5 0-10.8-2.2-14.6-5.9-3.8-3.8-5.9-9.1-5.9-14.6s2.2-10.8 5.9-14.6c3.8 3.8 9.1 5.9 14.6 5.9s10.8-2.2 14.6-5.9c3.8-3.8 5.9-9.1 5.9-14.6s-2.2-10.8-5.9-14.6c-3.8-3.8-9.1-5.9-14.6-5.9z"/>
  <!-- Simplified version below - more common icon -->
</svg>

<!-- tailwind_simplified.svg - More common icon representation -->
<svg xmlns="http://www.w3.org/2000/svg" viewBox="0 0 200 123.3">
 <title>Tailwind CSS Logo Simplified</title>
 <path fill="#38b2ac" d="M100.3 61.7c-6.3 0-12.7-1.3-18.5-4-5.3-2.4-10-5.9-13.8-10.2-4-4.4-6.8-9.7-8.2-15.5-.7-2.8-1-5.6-1-8.4 0-6.5 1.7-12.6 5.1-17.8 3.8-5.7 9.1-9.6 15.5-11.5 6.9-2 14.2-1.8 20.9.6 6.7 2.4 12.4 6.9 16.4 12.5 3.8 5.4 5.7 11.7 5.5 18.1-.1 4.1-1.2 8.1-3.3 11.7-2.2 3.8-5.3 7-9 9.3-4.3 2.7-9.2 4.3-14.3 4.8-1.7.2-3.4.3-5.1.3zm50.2 0c-6.3 0-12.7-1.3-18.5-4-5.3-2.4-10-5.9-13.8-10.2-4-4.4-6.8-9.7-8.2-15.5-.7-2.8-1-5.6-1-8.4 0-6.5 1.7-12.6 5.1-17.8 3.8-5.7 9.1-9.6 15.5-11.5 6.9-2 14.2-1.8 20.9.6 6.7 2.4 12.4 6.9 16.4 12.5 3.8 5.4 5.7 11.7 5.5 18.1-.1 4.1-1.2 8.1-3.3 11.7-2.2 3.8-5.3 7-9 9.3-4.3 2.7-9.2 4.3-14.3 4.8-1.7.2-3.4.3-5.1.3z"/>
</svg>